<?xml version="1.0" encoding="UTF-8" standalone="no"?>
<!-- Generator: Adobe Illustrator 17.0.0, SVG Export Plug-In . SVG Version: 6.00 Build 0)  -->

<svg
   xmlns:dc="http://purl.org/dc/elements/1.1/"
   xmlns:cc="http://creativecommons.org/ns#"
   xmlns:rdf="http://www.w3.org/1999/02/22-rdf-syntax-ns#"
   xmlns:svg="http://www.w3.org/2000/svg"
   xmlns="http://www.w3.org/2000/svg"
   xmlns:xlink="http://www.w3.org/1999/xlink"
   xmlns:sodipodi="http://sodipodi.sourceforge.net/DTD/sodipodi-0.dtd"
   xmlns:inkscape="http://www.inkscape.org/namespaces/inkscape"
   version="1.1"
   x="0px"
   y="0px"
   width="900px"
   height="700px"
   viewBox="0 0 900 700"
   enable-background="new 0 0 900 700"
   xml:space="preserve"
   id="svg2"
   inkscape:version="0.48.4 r9939"
   sodipodi:docname="logo.svg"
   inkscape:export-filename="/home/humberto/Projects/python/dojos/slides/img/logo.png"
   inkscape:export-xdpi="90"
   inkscape:export-ydpi="90"><metadata
     id="metadata187"><rdf:RDF><cc:Work
         rdf:about=""><dc:format>image/svg+xml</dc:format><dc:type
           rdf:resource="http://purl.org/dc/dcmitype/StillImage" /><dc:title /></cc:Work></rdf:RDF></metadata><defs
     id="defs185"><linearGradient
       inkscape:collect="always"
       xlink:href="#path1948_4_"
       id="linearGradient3316"
       gradientUnits="userSpaceOnUse"
       gradientTransform="matrix(0.5625,0,0,-0.568,-172.8987,406.8813)"
       x1="1551.7162"
       y1="602.90802"
       x2="1661.7477"
       y2="508.24051" /><linearGradient
       inkscape:collect="always"
       xlink:href="#path1950_4_"
       id="linearGradient3318"
       gradientUnits="userSpaceOnUse"
       gradientTransform="matrix(0.5625,0,0,-0.568,-172.8987,406.8813)"
       x1="1704.2839"
       y1="450.95319"
       x2="1664.9938"
       y2="506.5419" /><linearGradient
       inkscape:collect="always"
       xlink:href="#path1948_4_"
       id="linearGradient3372"
       gradientUnits="userSpaceOnUse"
       gradientTransform="matrix(0.5625,0,0,-0.568,-172.8987,406.8813)"
       x1="1551.7162"
       y1="602.90802"
       x2="1661.7477"
       y2="508.24051" /><linearGradient
       inkscape:collect="always"
       xlink:href="#path1950_4_"
       id="linearGradient3374"
       gradientUnits="userSpaceOnUse"
       gradientTransform="matrix(0.5625,0,0,-0.568,-172.8987,406.8813)"
       x1="1704.2839"
       y1="450.95319"
       x2="1664.9938"
       y2="506.5419" /><linearGradient
       inkscape:collect="always"
       xlink:href="#path1948_4_"
       id="linearGradient3537"
       gradientUnits="userSpaceOnUse"
       gradientTransform="matrix(0.5625,0,0,-0.568,-172.8987,406.8813)"
       x1="1551.7162"
       y1="602.90802"
       x2="1661.7477"
       y2="508.24051" /><linearGradient
       inkscape:collect="always"
       xlink:href="#path1950_4_"
       id="linearGradient3539"
       gradientUnits="userSpaceOnUse"
       gradientTransform="matrix(0.5625,0,0,-0.568,-172.8987,406.8813)"
       x1="1704.2839"
       y1="450.95319"
       x2="1664.9938"
       y2="506.5419" /><linearGradient
       inkscape:collect="always"
       xlink:href="#path1948_4_"
       id="linearGradient3099"
       gradientUnits="userSpaceOnUse"
       gradientTransform="matrix(0.5625,0,0,-0.568,-172.8987,406.8813)"
       x1="1551.7162"
       y1="602.90802"
       x2="1661.7477"
       y2="508.24051" /><linearGradient
       inkscape:collect="always"
       xlink:href="#path1950_4_"
       id="linearGradient3101"
       gradientUnits="userSpaceOnUse"
       gradientTransform="matrix(0.5625,0,0,-0.568,-172.8987,406.8813)"
       x1="1704.2839"
       y1="450.95319"
       x2="1664.9938"
       y2="506.5419" /></defs><sodipodi:namedview
     pagecolor="#ffffff"
     bordercolor="#666666"
     borderopacity="1"
     objecttolerance="10"
     gridtolerance="10"
     guidetolerance="10"
     inkscape:pageopacity="0"
     inkscape:pageshadow="2"
     inkscape:window-width="1299"
     inkscape:window-height="691"
     id="namedview183"
     showgrid="false"
     showguides="true"
     inkscape:guide-bbox="true"
     inkscape:zoom="0.47454722"
     inkscape:cx="495.8715"
     inkscape:cy="327.26861"
     inkscape:window-x="10"
     inkscape:window-y="34"
     inkscape:window-maximized="0"
     inkscape:current-layer="svg2" /><rect
     style="fill:none"
     id="rect155"
     height="30.243999"
     width="68.577003"
     y="167.722"
     x="422.73801" /><text
     style="font-size:34px;font-family:AdobeGothicStd-Bold-KSCpc-EUC-H"
     id="text157"
     font-size="34"
     x="422.7377"
     y="195.058">道場</text>
<rect
     style="fill:none"
     id="rect179"
     height="50.655998"
     width="368.53101"
     y="614.052"
     x="433.12601" /><g
     id="g3284"><g
       id="g3216"><g
         id="g3190"><g
           id="g3180"><g
             id="g3040"
             transform="translate(-11.686261,9.2695629)"
             style="fill:#000000"><rect
               x="307.625"
               y="224.248"
               width="294.948"
               height="232.787"
               id="rect101"
               style="fill:#000000" /><path
               inkscape:connector-curvature="0"
               d="m 311.726,224.845 c 0,0 70.064,-40.353 0,-84.002 h 145.282 v 84.002 H 311.726"
               id="path103"
               style="fill:#000000" /><path
               inkscape:connector-curvature="0"
               d="m 602.29,224.845 c 0,0 -70.064,-40.353 0,-84.002 H 457.008 v 84.002 H 602.29"
               id="path105"
               style="fill:#000000" /><polygon
               points="510.238,67.988 565.228,117.918 455.248,117.918 345.268,117.918 400.258,67.988 455.248,18.058 "
               id="polygon109"
               style="fill:#000000" /></g><rect
             style="fill:#ffffff"
             id="rect135"
             height="103.452"
             width="55.037998"
             y="342.03458"
             x="415.89374" /><g
             id="g3136"
             transform="translate(-6.5872622,9.2695629)"><circle
               cx="455.099"
               cy="182.25101"
               r="39.18"
               id="circle137"
               sodipodi:cx="455.099"
               sodipodi:cy="182.25101"
               sodipodi:rx="39.18"
               sodipodi:ry="39.18"
               style="fill:#ffffff"
               d="m 494.279,182.25101 c 0,21.63851 -17.54148,39.18 -39.18,39.18 -21.63852,0 -39.18,-17.54149 -39.18,-39.18 0,-21.63852 17.54148,-39.18 39.18,-39.18 21.63852,0 39.18,17.54148 39.18,39.18 z"
               transform="translate(-5.098999,0)" /></g></g><g
           id="g3082"
           transform="translate(-11.834762,9.2695629)"><path
             id="path113"
             d="m 262.1,247.337 c 0,-7.177 -4.803,-12.996 -10.728,-12.996 h -5.8 c -5.925,0 -10.728,5.818 -10.728,12.996 v 186.608 c 0,7.177 4.803,12.996 10.728,12.996 h 5.8 c 5.925,0 10.728,-5.818 10.728,-12.996 V 247.337 z"
             inkscape:connector-curvature="0"
             style="fill:#ad1917" /><path
             id="path119"
             d="m 675.651,247.337 c 0,-7.177 -4.803,-12.996 -10.728,-12.996 h -5.8 c -5.925,0 -10.728,5.818 -10.728,12.996 v 186.608 c 0,7.177 4.803,12.996 10.728,12.996 h 5.8 c 5.925,0 10.728,-5.818 10.728,-12.996 V 247.337 z"
             inkscape:connector-curvature="0"
             style="fill:#ad1917" /></g><rect
           style="fill:#333333"
           x="139.72374"
           y="439.66257"
           width="607.37799"
           height="47.459"
           id="rect159" /><g
           id="g3074"
           transform="matrix(1,0,0,1.0544923,-12.835762,-1.5997931)"><path
             id="path115"
             d="m 403.529,247.337 c 0,-7.177 -5.818,-12.996 -12.996,-12.996 h -7.026 c -7.177,0 -12.996,5.818 -12.996,12.996 v 186.608 c 0,7.177 5.818,12.996 12.996,12.996 h 7.026 c 7.177,0 12.996,-5.818 12.996,-12.996 V 247.337 z"
             inkscape:connector-curvature="0"
             style="fill:#ad1917" /><path
             id="path117"
             d="m 539.984,247.337 c 0,-7.177 -5.818,-12.996 -12.996,-12.996 h -7.026 c -7.177,0 -12.996,5.818 -12.996,12.996 v 186.608 c 0,7.177 5.818,12.996 12.996,12.996 h 7.026 c 7.177,0 12.996,-5.818 12.996,-12.996 V 247.337 z"
             inkscape:connector-curvature="0"
             style="fill:#ad1917" /><path
             id="path121"
             d="m 669.18118,276.331 c 0,4.536 -3.62475,8.214 -8.09635,8.214 H 250.1678 c -4.47159,0 -8.09635,-3.677 -8.09635,-8.214 l 0,0 c 0,-4.536 3.62476,-8.214 8.09635,-8.214 h 410.91703 c 4.47063,0 8.09635,3.677 8.09635,8.214 l 0,0 z"
             inkscape:connector-curvature="0"
             style="fill:#ad1917" /><path
             id="path123"
             d="m 731.777,232.353 c 0,-4.801 -5.874,-8.693 -13.12,-8.693 H 199.743 c -7.246,0 -13.12,3.892 -13.12,8.693 v 6.302 c 0,4.801 5.874,8.693 13.12,8.693 h 518.914 c 7.246,0 13.12,-3.892 13.12,-8.693 v -6.302 z"
             inkscape:connector-curvature="0"
             style="fill:#ac1918" /><path
             id="path127"
             d="m 202.532,247.348 c -114.229,0 -52.964,-43.831 -107.509,-43.831 5.978,-3.755 11.314,-4.051 11.314,-4.051 51.284,0 9.486,25.859 95.009,24.194 l 25.642,7.97 1.038,6.67 -12.747,5.336 -6.373,1.038 -6.374,2.674 z"
             inkscape:connector-curvature="0"
             style="fill:#ac1918" /><path
             id="path129"
             d="m 709.965,247.348 c 114.229,0 52.964,-43.831 107.509,-43.831 -5.978,-3.755 -11.314,-4.051 -11.314,-4.051 -51.284,0 -9.486,25.859 -95.009,24.194 l -25.642,7.97 -1.038,6.67 12.747,5.336 6.373,1.038 6.374,2.674 z"
             inkscape:connector-curvature="0"
             style="fill:#ac1918" /></g><g
           id="g3025"
           transform="translate(-12.030762,9.2695629)"><path
             id="path125"
             d="m 627.43,126.612 c 0,-4.801 -3.672,-8.693 -8.202,-8.693 H 294.824 c -4.53,0 -8.202,3.892 -8.202,8.693 v 6.302 c 0,4.801 3.672,8.693 8.202,8.693 h 324.404 c 4.53,0 8.202,-3.892 8.202,-8.693 v -6.302 z"
             inkscape:connector-curvature="0"
             style="fill:#ac1918" /><path
             id="path131"
             d="m 301.246,141.734 c -78.557,0 -76.021,-40.687 -76.021,-59.955 16.14,13.34 -4.018,36.14 76.021,36.14 80.039,0 16.601,9.512 16.601,9.512 l -16.601,14.303 z"
             inkscape:connector-curvature="0"
             style="fill:#ac1918" /><path
             id="path133"
             d="m 609.641,141.734 c 78.557,0 76.021,-40.687 76.021,-59.955 -16.14,13.34 4.018,36.14 -76.021,36.14 -80.039,0 -16.601,9.512 -16.601,9.512 l 16.601,14.303 z"
             inkscape:connector-curvature="0"
             style="fill:#ac1918" /></g></g><g
         id="g3204"
         transform="translate(-6.5872622,9.2695629)"><circle
           cx="758.78802"
           cy="117.918"
           r="65.612"
           id="circle139"
           d="m 824.40002,117.918 c 0,36.23651 -29.37549,65.612 -65.612,65.612 -36.2365,0 -65.61199,-29.37549 -65.61199,-65.612 0,-36.236507 29.37549,-65.612 65.61199,-65.612 36.23651,0 65.612,29.375493 65.612,65.612 z"
           sodipodi:cx="758.78802"
           sodipodi:cy="117.918"
           sodipodi:rx="65.612"
           sodipodi:ry="65.612"
           style="fill:#fce3a4" /><g
           id="g141"><linearGradient
             id="path1948_4_"
             gradientUnits="userSpaceOnUse"
             x1="1551.7162"
             y1="602.90802"
             x2="1661.7477"
             y2="508.24051"
             gradientTransform="matrix(0.5625,0,0,-0.568,-172.8987,406.8813)"><stop
               offset="0"
               style="stop-color:#5CA0D5"
               id="stop144" /><stop
               offset="1"
               style="stop-color:#316A99"
               id="stop146" /></linearGradient><path
             id="path1948_1_"
             d="m 758.12,61.204 c -4.626,0.022 -9.044,0.416 -12.931,1.104 -11.451,2.023 -13.53,6.258 -13.53,14.067 v 10.313 h 27.061 v 3.438 h -27.061 -10.156 c -7.864,0 -14.75,4.727 -16.905,13.72 -2.485,10.307 -2.595,16.739 0,27.503 1.924,8.011 6.518,13.72 14.382,13.72 h 9.304 v -12.363 c 0,-8.932 7.728,-16.811 16.905,-16.811 h 27.029 c 7.524,0 13.53,-6.195 13.53,-13.751 V 76.375 c 0,-7.333 -6.187,-12.842 -13.53,-14.067 -4.648,-0.774 -9.472,-1.126 -14.098,-1.104 z m -14.634,8.295 c 2.795,0 5.078,2.32 5.078,5.172 0,2.842 -2.283,5.141 -5.078,5.141 -2.805,0 -5.078,-2.298 -5.078,-5.141 0,-2.852 2.273,-5.172 5.078,-5.172 z"
             style="fill:url(#linearGradient3099)"
             inkscape:connector-curvature="0" /><linearGradient
             id="path1950_4_"
             gradientUnits="userSpaceOnUse"
             x1="1704.2839"
             y1="450.95319"
             x2="1664.9938"
             y2="506.5419"
             gradientTransform="matrix(0.5625,0,0,-0.568,-172.8987,406.8813)"><stop
               offset="0"
               style="stop-color:#FFD53E"
               id="stop150" /><stop
               offset="1"
               style="stop-color:#FFE875"
               id="stop152" /></linearGradient><path
             id="path1950_1_"
             d="m 789.123,90.126 v 12.016 c 0,9.317 -7.899,17.157 -16.905,17.157 h -27.029 c -7.404,0 -13.53,6.336 -13.53,13.752 v 25.768 c 0,7.333 6.377,11.648 13.53,13.751 8.566,2.519 16.78,2.974 27.029,0 6.813,-1.973 13.53,-5.943 13.53,-13.751 v -10.313 h -27.029 v -3.438 h 27.029 13.53 c 7.865,0 10.795,-5.486 13.53,-13.72 2.826,-8.477 2.706,-16.629 0,-27.503 -1.944,-7.829 -5.655,-13.72 -13.53,-13.72 h -10.155 z m -15.202,65.255 c 2.805,0 5.078,2.298 5.078,5.141 0,2.852 -2.273,5.172 -5.078,5.172 -2.795,0 -5.078,-2.32 -5.078,-5.172 0,-2.843 2.283,-5.141 5.078,-5.141 z"
             style="fill:url(#linearGradient3101)"
             inkscape:connector-curvature="0" /></g></g></g><g
       id="g3254"><g
         id="g161"
         transform="translate(-15.819358,9.2695629)"><path
           id="path163"
           d="m 279.999,488.556 c 0,0 0.07,61.505 0.07,83.394 0,21.889 -19.042,22.425 -23.865,22.425 -4.823,0 -23.68,-0.18 -23.68,-22.602 0,-22.422 16.204,-24.299 23.447,-24.299 7.242,0 13.564,2.302 13.564,2.302 v -6.856 c 0,0 -6.961,-2.302 -13.564,-2.302 -6.603,0 -31.037,1.338 -31.037,30.273 0,28.934 24.183,29.021 31.271,29.021 7.088,0 30.804,-1.846 30.804,-27.537 0,-34.559 0,-83.854 0,-83.854 l -7.01,0.035 z"
           stroke-miterlimit="10"
           inkscape:connector-curvature="0"
           style="fill:#ac1918;stroke:#ac1918;stroke-width:4;stroke-miterlimit:10" /><path
           id="path165"
           d="M 349.35,525.503"
           stroke-miterlimit="10"
           inkscape:connector-curvature="0"
           style="fill:#ac1918;stroke:#ac1918;stroke-width:4;stroke-miterlimit:10" /><path
           id="path167"
           d="m 347.283,538.693 v 6.925 c 11.999,1.059 18.649,11.111 18.928,23.685 0.279,12.574 -10.56,23.731 -23.567,23.731 -13.007,0 -26.292,-8.759 -26.292,-23.731 0,-14.972 10.262,-23.587 19.836,-23.587 l -0.201,-7.022 c -19.871,0.37 -27.502,16.266 -26.861,31.441 0.64,15.174 12.563,29.778 33.518,29.778 20.955,0 30.701,-16.088 30.701,-30.701 10e-4,-14.614 -7.122,-30.519 -26.062,-30.519 z"
           stroke-miterlimit="10"
           inkscape:connector-curvature="0"
           style="fill:#ac1918;stroke:#ac1918;stroke-width:4;stroke-miterlimit:10" /><path
           id="path169"
           d="M 471.905,528.363"
           stroke-miterlimit="10"
           inkscape:connector-curvature="0"
           style="fill:#ac1918;stroke:#ac1918;stroke-width:4;stroke-miterlimit:10" /><path
           id="path171"
           d="m 398.654,543.745 c 0,0 0,56.812 0,77.578 0,20.765 -10.273,26.735 -15.096,26.735 -4.823,0 -20.086,2.638 -20.086,-15.84 l -0.024,-6.225 v -5.542 l -7.566,-3.895 v 14.825 c 0,24.981 20.589,21.929 27.676,21.929 7.088,0 22.035,-7.213 22.035,-31.584 0,-32.784 0,-77.948 0,-77.948 l -6.939,-0.033 z"
           stroke-miterlimit="10"
           inkscape:connector-curvature="0"
           style="fill:#ac1918;stroke:#ac1918;stroke-width:4;stroke-miterlimit:10" /><path
           id="path173"
           d="m 461.758,538.693 v 6.925 c 11.999,1.059 18.649,11.111 18.928,23.685 0.279,12.574 -10.56,23.731 -23.566,23.731 -13.007,0 -26.292,-8.759 -26.292,-23.731 0,-14.972 10.262,-23.587 19.836,-23.587 l -0.201,-7.022 c -19.871,0.37 -27.502,16.266 -26.861,31.441 0.64,15.174 12.563,29.778 33.518,29.778 20.955,0 30.701,-16.088 30.701,-30.701 0,-14.614 -7.123,-30.519 -26.063,-30.519 z"
           stroke-miterlimit="10"
           inkscape:connector-curvature="0"
           style="fill:#ac1918;stroke:#ac1918;stroke-width:4;stroke-miterlimit:10" /><path
           id="path175"
           d="m 404.352,520.257 v 1.912 c 3.313,0.292 5.149,3.068 5.226,6.539 0.077,3.471 -2.915,6.552 -6.506,6.552 -3.591,0 -7.259,-2.418 -7.259,-6.552 0,-4.134 2.833,-6.512 5.476,-6.512 l -0.055,-1.939 c -5.486,0.102 -7.593,4.491 -7.416,8.68 0.177,4.189 3.468,8.221 9.254,8.221 5.786,0 8.476,-4.442 8.476,-8.476 -10e-4,-4.034 -1.967,-8.425 -7.196,-8.425 z"
           inkscape:connector-curvature="0"
           style="fill:#ac1918" /><path
           id="path177"
           d="m 409.951,528.496 c 0,-3.877 -1.661,-6.614 -7.274,-6.614 -4.786,0 -7.274,2.737 -7.274,6.614 0,3.877 3.257,7.02 7.274,7.02 4.018,0.001 7.274,-3.142 7.274,-7.02 z"
           inkscape:connector-curvature="0"
           style="fill:#ac1918" /></g><text
         y="661.02631"
         x="419.30585"
         style="font-size:53.96229935000000211px;font-style:normal;font-variant:normal;font-weight:bold;font-stretch:normal;font-family:Sans;-inkscape-font-specification:Sans Bold;fill:#000000"
         id="text181"
         font-size="53.9623">GrupyDF</text>
</g></g></svg>