<?xml version="1.0" encoding="UTF-8" standalone="no"?>
<!-- Generator: Adobe Illustrator 17.0.0, SVG Export Plug-In . SVG Version: 6.00 Build 0)  -->

<svg
   xmlns:dc="http://purl.org/dc/elements/1.1/"
   xmlns:cc="http://creativecommons.org/ns#"
   xmlns:rdf="http://www.w3.org/1999/02/22-rdf-syntax-ns#"
   xmlns:svg="http://www.w3.org/2000/svg"
   xmlns="http://www.w3.org/2000/svg"
   xmlns:sodipodi="http://sodipodi.sourceforge.net/DTD/sodipodi-0.dtd"
   xmlns:inkscape="http://www.inkscape.org/namespaces/inkscape"
   version="1.1"
   x="0px"
   y="0px"
   width="900px"
   height="700px"
   viewBox="0 0 900 700"
   enable-background="new 0 0 900 700"
   xml:space="preserve"
   id="svg2"
   inkscape:version="0.48.4 r9939"
   sodipodi:docname="logo.svg"
   inkscape:export-filename="/home/humberto/Downloads/Dojo Brasilia.png"
   inkscape:export-xdpi="90"
   inkscape:export-ydpi="90"><metadata
     id="metadata187"><rdf:RDF><cc:Work
         rdf:about=""><dc:format>image/svg+xml</dc:format><dc:type
           rdf:resource="http://purl.org/dc/dcmitype/StillImage" /><dc:title /></cc:Work></rdf:RDF></metadata><defs
     id="defs185" /><sodipodi:namedview
     pagecolor="#ffffff"
     bordercolor="#666666"
     borderopacity="1"
     objecttolerance="10"
     gridtolerance="10"
     guidetolerance="10"
     inkscape:pageopacity="0"
     inkscape:pageshadow="2"
     inkscape:window-width="1299"
     inkscape:window-height="691"
     id="namedview183"
     showgrid="false"
     showguides="true"
     inkscape:guide-bbox="true"
     inkscape:zoom="0.67111111"
     inkscape:cx="439.41051"
     inkscape:cy="423.31706"
     inkscape:window-x="10"
     inkscape:window-y="34"
     inkscape:window-maximized="0"
     inkscape:current-layer="Camada_11" /><g
     id="Camada_11"><rect
       x="307.625"
       y="224.248"
       width="294.948"
       height="232.787"
       id="rect101" /><path
       d="M311.726,224.845c0,0,70.064-40.353,0-84.002h145.282v84.002H311.726"
       id="path103" /><path
       d="M602.29,224.845c0,0-70.064-40.353,0-84.002H457.008v84.002H602.29"
       id="path105" /><rect
       x="400.554"
       y="140.843"
       width="112.944"
       height="82.816"
       id="rect107" /><polygon
       points="455.248,18.058 510.238,67.988 565.228,117.918 455.248,117.918 345.268,117.918 400.258,67.988  "
       id="polygon109" /><path
       fill="#AD1917"
       d="M407.482,248.5c0-7.177-5.818-12.996-12.996-12.996h-7.026c-7.177,0-12.996,5.818-12.996,12.996v186.608   c0,7.177,5.818,12.996,12.996,12.996h7.026c7.177,0,12.996-5.818,12.996-12.996V248.5z"
       id="path111" /><path
       fill="#AD1917"
       d="M262.1,247.337c0-7.177-4.803-12.996-10.728-12.996h-5.8c-5.925,0-10.728,5.818-10.728,12.996v186.608   c0,7.177,4.803,12.996,10.728,12.996h5.8c5.925,0,10.728-5.818,10.728-12.996V247.337z"
       id="path113" /><path
       fill="#AD1917"
       d="M403.529,247.337c0-7.177-5.818-12.996-12.996-12.996h-7.026c-7.177,0-12.996,5.818-12.996,12.996v186.608   c0,7.177,5.818,12.996,12.996,12.996h7.026c7.177,0,12.996-5.818,12.996-12.996V247.337z"
       id="path115" /><path
       fill="#AD1917"
       d="M539.984,247.337c0-7.177-5.818-12.996-12.996-12.996h-7.026c-7.177,0-12.996,5.818-12.996,12.996v186.608   c0,7.177,5.818,12.996,12.996,12.996h7.026c7.177,0,12.996-5.818,12.996-12.996V247.337z"
       id="path117" /><path
       fill="#AD1917"
       d="M675.651,247.337c0-7.177-4.803-12.996-10.728-12.996h-5.8c-5.925,0-10.728,5.818-10.728,12.996v186.608   c0,7.177,4.803,12.996,10.728,12.996h5.8c5.925,0,10.728-5.818,10.728-12.996V247.337z"
       id="path119" /><path
       fill="#AD1917"
       d="M675.503,276.331c0,4.536-3.741,8.214-8.356,8.214H243.052c-4.615,0-8.356-3.677-8.356-8.214l0,0   c0-4.536,3.741-8.214,8.356-8.214h424.095C671.761,268.117,675.503,271.794,675.503,276.331L675.503,276.331z"
       id="path121" /><path
       fill="#AC1918"
       d="M731.777,232.353c0-4.801-5.874-8.693-13.12-8.693H199.743c-7.246,0-13.12,3.892-13.12,8.693v6.302   c0,4.801,5.874,8.693,13.12,8.693h518.914c7.246,0,13.12-3.892,13.12-8.693V232.353z"
       id="path123" /><path
       fill="#AC1918"
       d="M627.43,126.612c0-4.801-3.672-8.693-8.202-8.693H294.824c-4.53,0-8.202,3.892-8.202,8.693v6.302   c0,4.801,3.672,8.693,8.202,8.693h324.404c4.53,0,8.202-3.892,8.202-8.693V126.612z"
       id="path125" /><path
       fill="#AC1918"
       d="M202.532,247.348c-114.229,0-52.964-43.831-107.509-43.831c5.978-3.755,11.314-4.051,11.314-4.051   c51.284,0,9.486,25.859,95.009,24.194l25.642,7.97l1.038,6.67l-12.747,5.336l-6.373,1.038L202.532,247.348z"
       id="path127" /><path
       fill="#AC1918"
       d="M709.965,247.348c114.229,0,52.964-43.831,107.509-43.831c-5.978-3.755-11.314-4.051-11.314-4.051   c-51.284,0-9.486,25.859-95.009,24.194l-25.642,7.97l-1.038,6.67l12.747,5.336l6.373,1.038L709.965,247.348z"
       id="path129" /><path
       fill="#AC1918"
       d="M301.246,141.734c-78.557,0-76.021-40.687-76.021-59.955c16.14,13.34-4.018,36.14,76.021,36.14   s16.601,9.512,16.601,9.512L301.246,141.734z"
       id="path131" /><path
       fill="#AC1918"
       d="M609.641,141.734c78.557,0,76.021-40.687,76.021-59.955c-16.14,13.34,4.018,36.14-76.021,36.14   s-16.601,9.512-16.601,9.512L609.641,141.734z"
       id="path133" /><rect
       x="427.58"
       y="332.765"
       fill="#FFFFFF"
       width="55.038"
       height="103.452"
       id="rect135" /><circle
       fill="#FFFFFF"
       cx="455.099"
       cy="182.251"
       r="39.18"
       id="circle137" /><circle
       fill="#FCE3A4"
       cx="758.788"
       cy="117.918"
       r="65.612"
       id="circle139" /><g
       id="g141"><linearGradient
         id="path1948_4_"
         gradientUnits="userSpaceOnUse"
         x1="1551.7162"
         y1="602.908"
         x2="1661.7477"
         y2="508.2405"
         gradientTransform="matrix(0.5625 0 0 -0.568 -172.8987 406.8813)"><stop
           offset="0"
           style="stop-color:#5CA0D5"
           id="stop144" /><stop
           offset="1"
           style="stop-color:#316A99"
           id="stop146" /></linearGradient><path
         id="path1948_1_"
         fill="url(#path1948_4_)"
         d="M758.12,61.204c-4.626,0.022-9.044,0.416-12.931,1.104    c-11.451,2.023-13.53,6.258-13.53,14.067v10.313h27.061v3.438h-27.061h-10.156c-7.864,0-14.75,4.727-16.905,13.72    c-2.485,10.307-2.595,16.739,0,27.503c1.924,8.011,6.518,13.72,14.382,13.72h9.304v-12.363c0-8.932,7.728-16.811,16.905-16.811    h27.029c7.524,0,13.53-6.195,13.53-13.751V76.375c0-7.333-6.187-12.842-13.53-14.067C767.57,61.534,762.746,61.182,758.12,61.204z     M743.486,69.499c2.795,0,5.078,2.32,5.078,5.172c0,2.842-2.283,5.141-5.078,5.141c-2.805,0-5.078-2.298-5.078-5.141    C738.408,71.819,740.681,69.499,743.486,69.499z" /><linearGradient
         id="path1950_4_"
         gradientUnits="userSpaceOnUse"
         x1="1704.2839"
         y1="450.9532"
         x2="1664.9938"
         y2="506.5419"
         gradientTransform="matrix(0.5625 0 0 -0.568 -172.8987 406.8813)"><stop
           offset="0"
           style="stop-color:#FFD53E"
           id="stop150" /><stop
           offset="1"
           style="stop-color:#FFE875"
           id="stop152" /></linearGradient><path
         id="path1950_1_"
         fill="url(#path1950_4_)"
         d="M789.123,90.126v12.016c0,9.317-7.899,17.157-16.905,17.157h-27.029    c-7.404,0-13.53,6.336-13.53,13.752v25.768c0,7.333,6.377,11.648,13.53,13.751c8.566,2.519,16.78,2.974,27.029,0    c6.813-1.973,13.53-5.943,13.53-13.751v-10.313h-27.029v-3.438h27.029h13.53c7.865,0,10.795-5.486,13.53-13.72    c2.826-8.477,2.706-16.629,0-27.503c-1.944-7.829-5.655-13.72-13.53-13.72H789.123z M773.921,155.381    c2.805,0,5.078,2.298,5.078,5.141c0,2.852-2.273,5.172-5.078,5.172c-2.795,0-5.078-2.32-5.078-5.172    C768.843,157.679,771.126,155.381,773.921,155.381z" /></g><rect
       x="422.738"
       y="167.722"
       fill="none"
       width="68.577"
       height="30.244"
       id="rect155" /><text
       transform="matrix(1 0 0 1 422.7377 195.058)"
       font-family="'AdobeGothicStd-Bold-KSCpc-EUC-H'"
       font-size="34"
       id="text157">道場</text>
<rect
       x="151.41"
       y="430.393"
       fill="#262626"
       width="607.378"
       height="47.459"
       id="rect159" /><g
       id="g161"><path
         fill="#AC1918"
         stroke="#AC1918"
         stroke-width="4"
         stroke-miterlimit="10"
         d="M279.999,488.556c0,0,0.07,61.505,0.07,83.394    c0,21.889-19.042,22.425-23.865,22.425c-4.823,0-23.68-0.18-23.68-22.602s16.204-24.299,23.447-24.299    c7.242,0,13.564,2.302,13.564,2.302v-6.856c0,0-6.961-2.302-13.564-2.302s-31.037,1.338-31.037,30.273    c0,28.934,24.183,29.021,31.271,29.021c7.088,0,30.804-1.846,30.804-27.537c0-34.559,0-83.854,0-83.854L279.999,488.556z"
         id="path163" /><path
         fill="#AC1918"
         stroke="#AC1918"
         stroke-width="4"
         stroke-miterlimit="10"
         d="M349.35,525.503"
         id="path165" /><path
         fill="#AC1918"
         stroke="#AC1918"
         stroke-width="4"
         stroke-miterlimit="10"
         d="M347.283,538.693v6.925    c11.999,1.059,18.649,11.111,18.928,23.685s-10.56,23.731-23.567,23.731s-26.292-8.759-26.292-23.731s10.262-23.587,19.836-23.587    l-0.201-7.022c-19.871,0.37-27.502,16.266-26.861,31.441c0.64,15.174,12.563,29.778,33.518,29.778    c20.955,0,30.701-16.088,30.701-30.701C373.346,554.598,366.223,538.693,347.283,538.693z"
         id="path167" /><path
         fill="#AC1918"
         stroke="#AC1918"
         stroke-width="4"
         stroke-miterlimit="10"
         d="M471.905,528.363"
         id="path169" /><path
         fill="#AC1918"
         stroke="#AC1918"
         stroke-width="4"
         stroke-miterlimit="10"
         d="M398.654,543.745c0,0,0,56.812,0,77.578    c0,20.765-10.273,26.735-15.096,26.735c-4.823,0-20.086,2.638-20.086-15.84l-0.024-6.225v-5.542l-7.566-3.895v14.825    c0,24.981,20.589,21.929,27.676,21.929c7.088,0,22.035-7.213,22.035-31.584c0-32.784,0-77.948,0-77.948L398.654,543.745z"
         id="path171" /><path
         fill="#AC1918"
         stroke="#AC1918"
         stroke-width="4"
         stroke-miterlimit="10"
         d="M461.758,538.693v6.925    c11.999,1.059,18.649,11.111,18.928,23.685c0.279,12.574-10.56,23.731-23.566,23.731c-13.007,0-26.292-8.759-26.292-23.731    s10.262-23.587,19.836-23.587l-0.201-7.022c-19.871,0.37-27.502,16.266-26.861,31.441c0.64,15.174,12.563,29.778,33.518,29.778    c20.955,0,30.701-16.088,30.701-30.701C487.821,554.598,480.698,538.693,461.758,538.693z"
         id="path173" /><path
         fill="#AC1918"
         d="M404.352,520.257v1.912c3.313,0.292,5.149,3.068,5.226,6.539c0.077,3.471-2.915,6.552-6.506,6.552    s-7.259-2.418-7.259-6.552s2.833-6.512,5.476-6.512l-0.055-1.939c-5.486,0.102-7.593,4.491-7.416,8.68    c0.177,4.189,3.468,8.221,9.254,8.221s8.476-4.442,8.476-8.476C411.547,524.648,409.581,520.257,404.352,520.257z"
         id="path175" /><path
         fill="#AC1918"
         d="M409.951,528.496c0-3.877-1.661-6.614-7.274-6.614c-4.786,0-7.274,2.737-7.274,6.614    s3.257,7.02,7.274,7.02C406.695,535.517,409.951,532.374,409.951,528.496z"
         id="path177" /></g><rect
       x="433.126"
       y="614.052"
       fill="none"
       width="368.531"
       height="50.656"
       id="rect179" /><text
       transform="translate(433.1252,651.7567)"
       font-size="53.9623"
       id="text181"
       style="font-size:53.96229935px;font-style:normal;font-variant:normal;font-weight:bold;font-stretch:normal;font-family:Sans;-inkscape-font-specification:Sans Bold">GrupyDF</text>
</g></svg>